<?xml version="1.0" encoding="utf-8"?>
<!-- Generator: Adobe Illustrator 27.9.0, SVG Export Plug-In . SVG Version: 6.00 Build 0)  -->
<svg version="1.1" id="Layer_1" xmlns="http://www.w3.org/2000/svg" xmlns:xlink="http://www.w3.org/1999/xlink" x="0px" y="0px"
	 viewBox="0 0 648 293.5" style="enable-background:new 0 0 648 293.5;" xml:space="preserve">
<style type="text/css">
	.st0{fill:#FFEBCD;}
</style>
<g>
	<path class="st0" d="M329.9,190.3c14.1,1.6,7,16.9,2.3,23.4c-3,4.3-22.5,25.6-13.2,27.3c2.9,0.5,13.2-6.8,15.7-8.5
		c4.9-3.2,8.9-7.5,13-11.7c5.7-5.9,22.3-19.2,18.9-29.1c3.3-1.9,9.6,4.7,12,6.5c1.8,7.4-5.9,15-9.6,20.5
		c-4.9,7.2-8.7,14.5-12.5,22.3c6.2,3.4,20.6-12,25.3-15.9c3-2.4,6.9-5,9.1-8.4c2-3.2,2.2-6.9,4.2-10c7-10.4,42.3-26.2,46.8-7
		c-2.7,5.9-7.5,8.9-14.1,10c0.8-3.6,10.9-6.4,7.9-11c-2.4-3.7-10.1-0.4-12.9,1c-5.3,2.6-29.1,17.8-14.6,23.9
		c5.8,2.4,15.4-2.4,21.1-4.2c7-2.2,15.2-3.5,21.8-6.5c5.9-2.7,8.1-7.8,11.5-13.1c2.4-3.9,12.4-14.2,10.7-18.5
		c-5-0.3-9.6,0.2-12.9,4.7c0,2.6,2,3.4,3.5,4.6c-0.3,0.9-1,1.3-1.9,1.8c-11.2-8.3-6.9-16.6,5.8-19.8c4.5-1.1,11.1-0.4,14.6-3.3
		c3.3-2.7,7.7-14.8,6.8-18.8c4-0.2,8.7,3.4,10.4,7c2.4,5.1-1.1,7.1-1.3,12.2c4,1.9,8.9,1.8,13.4-0.1c1.1-4,1-4.6-0.8-9
		c3.3-3.2,11.1,8.8,13.4,10c3.9,2.2,17.2-0.2,19.5,3.2c-1.7,3.9-15.6,0.7-19.7,2.3c-5.5,2.1-10.9,6.2-16.5,8.7c0-3.1,2.1-5,1-7.4
		c-2.9-2.7-16.9,1.3-19.5,3.6c-5.5,4.9-10.1,13.3-14.5,19.3c-8.7,12.1-20.1,26.3-25.6,40.3c7.5,8.6,49.2-38.2,48.8-49
		c14.6-0.8,4.7,18.2,1.2,23.5c-2.6,3.8-19.6,24.3-14.4,27.5c8.9,5.4,50.7-41.5,43.7-49.4c4.9-3.3,9.5,0.4,10.2,6.1
		c0.4,3.4-5.9,11.3-3.2,13.7c8.2-1.4,38.9-34.9,43.3-14.2c1.8,8.7-8,17.4-12.8,23.4c-6,7.4-14.4,15-18.7,23.4
		c2,6.1,20.8-10.3,23.6-12.2c9.5-6.4,17.5-10,25.1-18.9c8.1-9.4,43.7-39.4,51.4-13.2c3.7,12.5-11.8,20.1-20.8,23.4
		c-5.8,2.1-11.7,4-17.7,5.3c-4.9,1-11.2,0.4-15.2,3.4c-7.2,5.4-7.3,14.5,2.3,16.1c12.2,2,25-7.1,35.6-11.5
		c-1.2,10-27.8,17.2-35.8,18.8c-14.2,2.9-22.5-5.6-16.1-20.2c-5.5-1.6-15.7,8-19.6,10.6c-8.2,5.6-12,9.4-22.3,9.4
		c-14.7-15.2,19.9-37,24.4-51c-13.4-0.5-26.2,13.1-34.3,22.3c-4.9,5.5-9.2,11.5-12.2,18.2c-2,4.5-2.6,14.6-6.9,17.4
		c-7.4-5.2-6.8-13.7-8.2-21.8c-7.2,4.9-13,11.9-21.9,13.9c-12.3,2.8-7.5-5.6-14.9-10.5c-9.3-0.6-16.1,21.2-27.4,12.6
		c-10.1-7.7,4.1-26.2,8.3-33.6c-0.9-5.1-9.9-1-13-0.2c-5.4,1.3-10,0.9-8.8,6.9s4.5,6.8,0,12.8c-4.1,5.4-11.5,8.4-17.8,10.4
		c-7.8,2.5-27.9,7.7-31.8-3.1c-4.7-13,17.6-18.8,25.1-23.1C394,215,370.4,243.6,365,248c-4.5,3.7-12.6,11.1-18.6,6.6
		c-6.2-4.6-1.3-15.4,0.9-20.8c-2.1-3-16.6,11.4-19.5,13.2c-7.5,4.8-15,8.5-24,6.4c-7.8-10.4,5.8-25.9,11-34.6c0.2-3.3-7-2.3-8.7-2
		c-4.7,1-6.5,3.5-9.4,7c-7.3,8.5-14.6,16.9-22.5,24.8c-15.5,15.3-32.3,29.6-52.9,37c-17.6,6.3-43,13.2-60.2,1.6
		c-20.5-13.8-4.1-33.5,10-44.3c16.2-12.4,39.2-20.5,59-25.3c9.5-2.3,18.9-3.2,28.5-3.9c8.6-0.7,25.8-0.9,32.9-5.8
		c6.8-4.8,14.2-17.8,18.2-25.2c4.5-8.2,9.4-22.7-0.1-29.1c-16.5-11.1-49.5,2-64.8,10.2c-6.5,3.5-51.5,37.9-24.8,39.7
		c9.9,0.7,23.5-6.6,32.3-11c5.3-2.7,10.6-5.9,15.8-8.8c4.2-2.4,10.7-8.4,15.7-8.4c-1.1,10.6-23.4,24.4-32.2,29.1
		c-11.1,5.9-30.4,14.4-42.2,6c-12.7-9-6-27.1,1.9-36.7c10.1-12.1,21.8-21.7,36.4-27.6c24-9.7,74.8-14.2,75.3,23.3
		c0.1,8.3-3.3,15.4-6.8,22.6c-1.5,3-8.5,13.9-7.4,16.9c1.8,4.4,10.4,2.1,13,0C328.5,203.6,326.9,196.7,329.9,190.3z M177,282.2
		c24.9-4.3,45.3-11.7,66.6-25.9c9.9-6.6,18.4-15,26.9-23.1c6-5.7,19.2-17.4,3.4-14.9c-25.8,4-52.5,11.6-75.3,24.5
		c-10.1,5.7-20.5,13.1-28.7,21.3C160.6,273.4,162.4,282.2,177,282.2z M383.8,252.5c8-1.9,15.6-5.7,22.5-10c4.8-3,11.8-10,1.9-11.4
		c-6-0.9-15.9,7.1-20.1,10.4C387,242.4,375.3,252.7,383.8,252.5z M638.6,202.7c-7.1-5.8-32.1,13.2-34.7,19.9
		C612.6,225.6,633.6,214.3,638.6,202.7z"/>
	<path class="st0" d="M351.6,73.1c-4.9-18.4-27.3,1.8-34,7.7c-6.3,5.5-11.8,11.9-16.2,19.1c-2,3.3-4.2,7-5.4,10.7
		c-0.7,2.1-0.6,9.9-2.6,11c-25.2-7.7,6.6-30.6,5.9-40.7c-3.1-0.5-5.8,1.4-9,1c-8.1,23.1-55,50.2-67.5,19.1
		c-9.6,2.8-11.9,15-23.8,15.3c-5.4,0.1-6.8-0.8-8.2-5.5c-1-3.4,2.5-11.4-0.3-13.1c-7.1,5.6-23.4,25.3-33.8,14.7
		c-9-9.1,8.7-30.2,13.4-38.3c-5.5-2.7-11.1-4.1-16.9-5.3c-9.3,14.9-14.7,33.9-17.8,51c-1.1,5.7-3.7,14.9,2.6,18.6
		c6.2,3.6,13.7-3.7,18.9-1.1c-4,10-16.9,11.7-24.6,5c-6.7-5.9-10.5-21.9-6.2-29.8c-0.9-6.7,3.3-16.1,5.2-22.4
		c1.7-5.6,9.7-17.6,7-23.2c-10.1-3.1-12.5,0.3-18.9,7c-6.7,7-13.5,13.9-19.9,21.3c-5.5,6.4-11.5,12-17.8,17.6
		c-7.5,6.7-13.5,14.7-21.7,20.6c-13.5,9.7-32.1,15.6-47.7,6.9C-5.5,130.3-2,110.4,10,97.4c12.1-13.1,30.8-22.7,47-29.5
		c16.3-6.9,36.1-9.5,53.8-10.4c10.8-0.6,13.9,0.3,20.4-8.3c6.6-8.8,14.1-16.9,21.5-25.1c5.6-6.1,9.9-13,14.5-19.8
		c1.5-2.2,0.4-3.9,3.6-4.3c3.5-0.5,6.4,3.8,8.1,6.1c6.4,8.4,2.4,13.6-2.5,21.9c-5.4,9-11.6,17.7-16.7,26.9
		c-4.8,8.6-0.9,9.8,7.8,12.1c10.3,2.7,13.1-5.3,14.3-14.6c4.6,0.2,9.2,5.3,10.4,9.4c1.6,5.4-0.3,7.7-3.8,12.1
		c-4.9,6.1-21.6,19.7-17.3,28.2c10.6-0.4,22.8-15.4,29.7-22.1c8.5-8.4,18.4-17,20.5-29.3c7-0.3,8,10.4,11.8,14.1
		c-4.6,4.5-8.5,9.7-12.6,14.6c-3.6,4.4-10.8,10.2-12.2,15.8c-3.5,14.1,19.4-7.7,22.4-11.1c9-10.1,16.8-21.4,24.4-32.6
		c6.6-9.7,21-26,20-38.6c9.7-2.5,13.4,10.2,10.4,16.6c-2.1,4.4-16.3,16.8-14.9,21.1c2.4,2.7,12-0.9,16,1.3c7.3,4,4.3,12.7,6.2,18.8
		c1.8,5.7,10.4,3.9,15.2,0.2c5-3.9,5.7-12.1,5.2-17.8c9.1-1.9,10.1,5.1,13.1,10.6c6.2,2.4,14.9-11.9,22.7-11.3
		C361.4,53.4,354.9,67,351.6,73.1z M116.6,65.1c-6.2-5.9-26.4,1.3-33.8,2.6c-11,2-22.2,5.6-31.9,11.2c-10.3,5.9-19.5,13.7-28.2,21.7
		c-5.6,5.2-16.2,14.9-13.7,23.8c2.9,10.1,18.6,10.8,26.5,8.3c10-3.1,19.1-10.7,27-17.3C81.3,99.8,100.3,83.7,116.6,65.1z
		 M271.1,87.1c-4-7.8-39.1,6.1-37.9,15.9C234.5,114.6,267.7,90.4,271.1,87.1z M254.9,77.5c2.9,2.6,19.3,1.4,22.9-0.7
		c3.7-2.2,10.4-12.5,5.8-16.5C277.4,54.9,257.8,72.3,254.9,77.5z M159.7,29.2c-6.8,4-24,25.4-25,30.1c3.1,0.7,6.2,1.4,9.7,0.7
		C149.4,49.7,154.6,39.4,159.7,29.2z"/>
	<path class="st0" d="M405.2,104.1c9.8-1.3,21.5-13.7,29-19.6c6.7-5.2,25-17.3,23.6-27.1c16-0.1,7.4,14.8,1.6,20.9
		c-8.6,9.3-18.7,19.9-23.3,31.9c12.5-6.7,20.6-22.7,34.9-25.9c-26.8,26-48.7,55.2-66.8,87.9c-19.9-10.7,15.3-52.9,19.7-66.7
		c-3-4.4-20.2,9.4-25.8,8.4c-4.5-0.8-5.9-3.8-6.4-8.1c-0.3-2.8,2.8-8.8,1-10.8c-4.4-2-21.6,11.3-26,13.4c-7.4,3.5-19.6,9.3-27.3,3.6
		c-17.9-13,17.9-43.8,28.3-50.3c8.4-5.2,19.2-9.5,28.9-5.2c10.1,4.4,6.4,13.2-0.8,19c-8,6.4-17.7,10.4-27.5,13.1
		c-9.9,2.8-20.8,3.1-21.9,16.2c8,8.9,35-10.7,42.5-15.1c10.8-6.2,26.6-14.4,30.5-27.4c1.5-4.9-0.1-9.1,6.9-5.8
		c6.8,3.2,4.5,8.2,1,13.1C422.7,76.3,399.8,95.7,405.2,104.1z M394,62.1c-8.4-4.6-28.6,15.2-32.5,21.4
		C366.3,90.9,394.7,70.5,394,62.1z"/>
</g>
</svg>
